# 3ds Max Wavefront OBJ Exporter v0.97b - (c)2007 guruware
# File Created: 10.05.2020 16:46:22

mtllib mas.mtl

#
# object Box001
#

v  -76.0367 0.0000 11.6454
v  -76.0367 0.0000 -8.3546
v  -56.0367 0.0000 -8.3546
v  -56.0367 0.0000 11.6454
v  -36.0367 0.0000 -8.3546
v  -36.0367 0.0000 11.6454
v  -16.0367 0.0000 -8.3546
v  -16.0367 0.0000 11.6454
v  3.9633 0.0000 -8.3546
v  3.9633 0.0000 11.6454
v  23.9633 0.0000 -8.3546
v  23.9633 0.0000 11.6454
v  -76.0367 100.0000 11.6454
v  -56.0367 100.0000 11.6454
v  -56.0367 100.0000 -8.3546
v  -76.0367 100.0000 -8.3546
v  -36.0367 100.0000 11.6454
v  -36.0367 100.0000 -8.3546
v  -16.0367 100.0000 11.6454
v  -16.0367 100.0000 -8.3546
v  3.9633 100.0000 11.6454
v  3.9633 100.0000 -8.3546
v  23.9633 100.0000 11.6454
v  23.9633 100.0000 -8.3546
v  -76.0367 40.0000 51.6454
v  -56.0367 40.0000 51.6454
v  -56.0367 60.0000 51.6454
v  -76.0367 60.0000 51.6454
v  -36.0367 40.0000 51.6454
v  -36.0367 60.0000 51.6454
v  -16.0367 40.0000 51.6454
v  -16.0367 60.0000 51.6454
v  3.9633 40.0000 51.6454
v  3.9633 60.0000 51.6454
v  23.9633 40.0000 51.6454
v  23.9633 60.0000 51.6454
v  23.9633 20.0000 -8.3546
v  23.9633 20.0000 11.6454
v  23.9633 40.0000 -8.3546
v  23.9633 40.0000 11.6454
v  23.9633 40.0000 31.6454
v  23.9633 60.0000 31.6454
v  23.9633 60.0000 11.6454
v  23.9633 60.0000 -8.3546
v  23.9633 40.0000 -28.3546
v  23.9633 60.0000 -28.3546
v  23.9633 40.0000 -48.3546
v  23.9633 60.0000 -48.3546
v  23.9633 80.0000 -8.3546
v  23.9633 80.0000 11.6454
v  3.9633 40.0000 -48.3546
v  3.9633 60.0000 -48.3546
v  -16.0367 40.0000 -48.3546
v  -16.0367 60.0000 -48.3546
v  -36.0367 40.0000 -48.3546
v  -36.0367 60.0000 -48.3546
v  -56.0367 40.0000 -48.3546
v  -56.0367 60.0000 -48.3546
v  -76.0367 40.0000 -48.3546
v  -76.0367 60.0000 -48.3546
v  -76.0367 20.0000 11.6454
v  -76.0367 20.0000 -8.3546
v  -76.0367 40.0000 11.6454
v  -76.0367 40.0000 -8.3546
v  -76.0367 40.0000 -28.3546
v  -76.0367 60.0000 -28.3546
v  -76.0367 60.0000 -8.3546
v  -76.0367 60.0000 11.6454
v  -76.0367 40.0000 31.6454
v  -76.0367 60.0000 31.6454
v  -76.0367 80.0000 11.6454
v  -76.0367 80.0000 -8.3546
# 72 vertices

vn -0.5774 -0.5774 0.5774
vn -0.5774 -0.5774 -0.5774
vn 0.0000 -0.7071 -0.7071
vn 0.0000 -0.7071 0.7071
vn 0.5774 -0.5774 -0.5774
vn 0.5774 -0.5774 0.5774
vn -0.5774 0.5774 0.5774
vn 0.0000 0.7071 0.7071
vn 0.0000 0.7071 -0.7071
vn -0.5774 0.5774 -0.5774
vn 0.5774 0.5774 0.5774
vn 0.5774 0.5774 -0.5774
vn 0.7071 0.0000 -0.7071
vn 0.7071 0.0000 0.7071
vn 0.9045 -0.3015 -0.3015
vn 0.9045 -0.3015 0.3015
vn 0.7071 -0.7071 -0.0000
vn 0.7071 0.7071 -0.0000
vn 0.9045 0.3015 0.3015
vn 0.9045 0.3015 -0.3015
vn -0.7071 0.0000 0.7071
vn -0.7071 0.0000 -0.7071
vn -0.9045 -0.3015 0.3015
vn -0.9045 -0.3015 -0.3015
vn -0.7071 -0.7071 -0.0000
vn -0.7071 0.7071 -0.0000
vn -0.9045 0.3015 -0.3015
vn -0.9045 0.3015 0.3015
# 28 vertex normals

vt 1.0000 0.4000 0.0000
vt 1.0000 0.6000 0.0000
vt 0.8000 0.6000 0.0000
vt 0.8000 0.4000 0.0000
vt 0.6000 0.6000 0.0000
vt 0.6000 0.4000 0.0000
vt 0.4000 0.6000 0.0000
vt 0.4000 0.4000 0.0000
vt 0.2000 0.6000 0.0000
vt 0.2000 0.4000 0.0000
vt 0.0000 0.6000 0.0000
vt 0.0000 0.4000 0.0000
vt 0.4000 0.0000 0.0000
vt 0.6000 0.0000 0.0000
vt 0.6000 0.2000 0.0000
vt 0.4000 0.2000 0.0000
vt 0.6000 0.8000 0.0000
vt 0.4000 0.8000 0.0000
vt 0.6000 1.0000 0.0000
vt 0.4000 1.0000 0.0000
# 20 texture coords

o Box001
g Box001
usemtl wire_006135113
s 2
f 1/1/1 2/2/2 3/3/3 4/4/4 
f 4/4/4 3/3/3 5/5/3 6/6/4 
f 6/6/4 5/5/3 7/7/3 8/8/4 
f 8/8/4 7/7/3 9/9/3 10/10/4 
f 10/10/4 9/9/3 11/11/5 12/12/6 
s 4
f 13/12/7 14/10/8 15/9/9 16/11/10 
f 14/10/8 17/8/8 18/7/9 15/9/9 
f 17/8/8 19/6/8 20/5/9 18/7/9 
f 19/6/8 21/4/8 22/3/9 20/5/9 
f 21/4/8 23/1/11 24/2/12 22/3/9 
s 8
f 25/12/1 26/10/4 27/9/8 28/11/7 
f 26/10/4 29/8/4 30/7/8 27/9/8 
f 29/8/4 31/6/4 32/5/8 30/7/8 
f 31/6/4 33/4/4 34/3/8 32/5/8 
f 33/4/4 35/1/6 36/2/11 34/3/8 
s 16
f 12/13/6 11/14/5 37/15/13 38/16/14 
f 38/16/14 37/15/13 39/6/15 40/8/16 
f 35/12/6 41/10/17 42/9/18 36/11/11 
f 41/10/17 40/8/16 43/7/19 42/9/18 
f 40/8/16 39/6/15 44/5/20 43/7/19 
f 39/6/15 45/4/17 46/3/18 44/5/20 
f 45/4/17 47/1/5 48/2/12 46/3/18 
f 43/7/19 44/5/20 49/17/13 50/18/14 
f 50/18/14 49/17/13 24/19/12 23/20/11 
s 32
f 47/12/5 51/10/3 52/9/9 48/11/12 
f 51/10/3 53/8/3 54/7/9 52/9/9 
f 53/8/3 55/6/3 56/5/9 54/7/9 
f 55/6/3 57/4/3 58/3/9 56/5/9 
f 57/4/3 59/1/2 60/2/10 58/3/9 
s 64
f 2/13/2 1/14/1 61/15/21 62/16/22 
f 62/16/22 61/15/21 63/6/23 64/8/24 
f 59/12/2 65/10/25 66/9/26 60/11/10 
f 65/10/25 64/8/24 67/7/27 66/9/26 
f 64/8/24 63/6/23 68/5/28 67/7/27 
f 63/6/23 69/4/25 70/3/26 68/5/28 
f 69/4/25 25/1/1 28/2/7 70/3/26 
f 67/7/27 68/5/28 71/17/21 72/18/22 
f 72/18/22 71/17/21 13/19/7 16/20/10 
s off
f 48/2/12 52/9/9 54/7/9 56/5/9 58/3/9 60/2/10 66/9/26 67/7/27 44/5/20 46/3/18 
f 67/7/27 72/18/22 16/11/10 15/9/9 18/7/9 20/5/9 22/3/9 24/2/12 49/17/13 44/5/20 
f 43/7/19 50/18/14 23/1/11 21/4/8 19/6/8 17/8/8 14/10/8 13/12/7 71/17/21 68/5/28 
f 70/3/26 28/11/7 27/9/8 30/7/8 32/5/8 34/3/8 36/2/11 42/9/18 43/7/19 68/5/28 
f 40/8/16 41/10/17 35/1/6 33/4/4 31/6/4 29/8/4 26/10/4 25/12/1 69/4/25 63/6/23 
f 40/8/16 63/6/23 61/15/21 1/1/1 4/4/4 6/6/4 8/8/4 10/10/4 12/12/6 38/16/14 
f 64/8/24 65/10/25 59/1/2 57/4/3 55/6/3 53/8/3 51/10/3 47/1/5 45/4/17 39/6/15 
f 39/6/15 37/15/13 11/11/5 9/9/3 7/7/3 5/5/3 3/3/3 2/2/2 62/16/22 64/8/24 
# 46 polygons

